# xmcd CD database file
#
# Track frame offsets:
#	150
#	33710
#	70633
#	97755
#	126365
#	178118
#	214718
#	252515
#	282435
#	315598
#
# Disc length: 4428 seconds
#
# Revision: 0
# Processed by: cddbd v1.5.1PL0 Copyright (c) Steve Scherf et al.
# Submitted via: CDex 1.51
#
DISCID=91114a0a
DTITLE=Hank Jones - Upon Reflections
DYEAR=1993
DGENRE=Jazz
TTITLE0=Thad's Pad
TTITLE1=All Henry
TTITLE2=The Summary
TTITLE3=Little Rascal On A Rock
TTITLE4=Upon Reflections
TTITLE5=Lady Luck
TTITLE6=Mean What You Say
TTITLE7=Kids Are Pretty People
TTITLE8=Ray-El
TTITLE9=A Child Is Born
EXTD=YEAR: 1993
EXTT0=
EXTT1=
EXTT2=
EXTT3=
EXTT4=
EXTT5=
EXTT6=
EXTT7=
EXTT8=
EXTT9=
PLAYORDER=
